<svg xmlns="http://www.w3.org/2000/svg" width="180" height="180" viewBox="0 0 180 180" fill="none">
  <rect width="180" height="180" rx="40" fill="#0F172A"/>
  <rect x="14" y="14" width="152" height="152" rx="32" fill="url(#a)"/>
  <path d="M60 51C66.075 51 71 55.925 71 62V77C71 83.075 66.075 88 60 88C53.925 88 49 83.075 49 77V62C49 55.925 53.925 51 60 51Z" fill="#E2E8F0"/>
  <path d="M120 93C126.075 93 131 97.925 131 104V119C131 125.075 126.075 130 120 130C113.925 130 109 125.075 109 119V104C109 97.925 113.925 93 120 93Z" fill="#E2E8F0"/>
  <path d="M90.108 45C94.769 45 97.421 50.267 94.679 54.038L81.609 72.014H103.55C108.214 72.014 110.864 77.287 108.116 81.056L87.84 108.867C83.179 115.261 73.014 111.963 73.014 104.066V89.367H51.867C47.216 89.367 44.564 84.116 47.278 80.337L81.184 33.104C83.264 30.203 86.581 28.48 90.108 28.48Z" fill="#38BDF8"/>
  <circle cx="60" cy="107" r="9" fill="#818CF8"/>
  <circle cx="120" cy="74" r="9" fill="#818CF8"/>
  <defs>
    <linearGradient id="a" x1="29" y1="18" x2="154" y2="162" gradientUnits="userSpaceOnUse">
      <stop stop-color="#4F46E5"/>
      <stop offset="1" stop-color="#0F172A"/>
    </linearGradient>
  </defs>
</svg>
