<svg xmlns="http://www.w3.org/2000/svg" width="512" height="512" viewBox="0 0 512 512" fill="none">
  <rect width="512" height="512" rx="112" fill="#0F172A"/>
  <rect x="42" y="42" width="428" height="428" rx="92" fill="url(#a)"/>
  <path d="M171 144C188.121 144 202 157.879 202 175V218C202 235.121 188.121 249 171 249C153.879 249 140 235.121 140 218V175C140 157.879 153.879 144 171 144Z" fill="#E2E8F0"/>
  <path d="M341 257C358.121 257 372 270.879 372 288V331C372 348.121 358.121 362 341 362C323.879 362 310 348.121 310 331V288C310 270.879 323.879 257 341 257Z" fill="#E2E8F0"/>
  <path d="M256.305 129C269.438 129 276.908 143.855 269.183 154.481L232.353 205.117H294.171C307.313 205.117 314.781 219.986 307.035 230.608L249.917 308.938C236.784 326.94 208.117 317.654 208.117 295.423V254H148.562C135.456 254 127.979 239.192 135.626 228.54L231.164 95.37C237.03 87.196 246.379 82.338 256.305 82.338Z" fill="#38BDF8"/>
  <circle cx="171" cy="298" r="26" fill="#818CF8"/>
  <circle cx="341" cy="202" r="26" fill="#818CF8"/>
  <defs>
    <linearGradient id="a" x1="85" y1="53" x2="437" y2="459" gradientUnits="userSpaceOnUse">
      <stop stop-color="#4F46E5"/>
      <stop offset="1" stop-color="#0F172A"/>
    </linearGradient>
  </defs>
</svg>
