<svg xmlns="http://www.w3.org/2000/svg" width="192" height="192" viewBox="0 0 192 192" fill="none">
  <rect width="192" height="192" rx="42" fill="#0F172A"/>
  <rect x="16" y="16" width="160" height="160" rx="34" fill="url(#a)"/>
  <path d="M64 54C70.627 54 76 59.373 76 66V82C76 88.627 70.627 94 64 94C57.373 94 52 88.627 52 82V66C52 59.373 57.373 54 64 54Z" fill="#E2E8F0"/>
  <path d="M128 98C134.627 98 140 103.373 140 110V126C140 132.627 134.627 138 128 138C121.373 138 116 132.627 116 126V110C116 103.373 121.373 98 128 98Z" fill="#E2E8F0"/>
  <path d="M96.118 48C101.202 48 104.094 53.749 101.103 57.861L86.844 77.467H110.782C115.869 77.467 118.76 83.222 115.762 87.333L93.645 117.667C88.561 124.635 77.467 121.04 77.467 112.436V96.4H54.4C49.327 96.4 46.434 90.673 49.393 86.553L86.386 35.043C88.657 31.879 92.276 30 96.118 30Z" fill="#38BDF8"/>
  <circle cx="64" cy="114" r="10" fill="#818CF8"/>
  <circle cx="128" cy="78" r="10" fill="#818CF8"/>
  <defs>
    <linearGradient id="a" x1="32" y1="20" x2="164" y2="172" gradientUnits="userSpaceOnUse">
      <stop stop-color="#4F46E5"/>
      <stop offset="1" stop-color="#0F172A"/>
    </linearGradient>
  </defs>
</svg>
